<svg width="127" height="326" viewBox="0 0 127 326" fill="none" xmlns="http://www.w3.org/2000/svg">
<g opacity="0.1">
<path d="M215.28 105.709V60.7457C215.28 27.2577 186.352 0 150.803 0H103.185C67.6361 0 38.7077 27.2455 38.7077 60.7457V105.709C14.856 129.012 0 161.636 0 197.788C0 268.561 56.8558 325.948 127 325.948C197.144 325.948 254 268.573 254 197.788C254 161.636 239.144 129.012 215.292 105.709H215.28ZM78.1751 60.7457C78.1751 49.4045 89.6307 39.8278 103.197 39.8278H150.816C164.369 39.8278 175.837 49.4045 175.837 60.7457V79.461C160.8 73.1333 144.316 69.6287 127.012 69.6287C109.708 69.6287 93.2242 73.1333 78.1872 79.461V60.7457H78.1751ZM127 286.108C78.7299 286.108 39.4674 246.487 39.4674 197.776C39.4674 167.501 54.649 140.73 77.729 124.813H78.1751V124.497C92.1268 114.993 108.936 109.444 127 109.444C145.064 109.444 161.861 114.993 175.825 124.497V124.813H176.271C199.351 140.73 214.533 167.501 214.533 197.776C214.533 246.487 175.27 286.108 127 286.108Z" fill="#2954B1"/>
<path d="M152.988 186.778C152.988 171.992 141.123 160 126.494 160C111.865 160 100 171.992 100 186.778C100 197.336 106.095 206.364 114.87 210.738V235.098C114.87 240.541 119.281 245 124.667 245H128.333C133.719 245 138.13 240.541 138.13 235.098V210.738C146.905 206.376 153 197.336 153 186.79L152.988 186.778Z" fill="#2954B1"/>
</g>
</svg>
