<svg width="31" height="31" viewBox="0 0 31 31" fill="none" xmlns="http://www.w3.org/2000/svg">
<g clip-path="url(#clip0_53_32)">
<path d="M18.8457 27.5802C17.925 27.3335 16.721 26.654 15.0743 25.0532C13.0733 23.1016 11.5785 21.3943 9.86222 18.4307C8.2087 15.5688 7.50128 13.8132 6.71317 10.6023C5.82236 6.97672 6.56239 5.39968 7.08317 4.78046C7.70419 4.03998 8.4218 3.68985 9.30866 3.38912C9.81096 3.22366 10.3274 3.10484 10.8515 3.03417C10.9041 3.02653 10.9532 3.01894 10.997 3.01198C11.2586 2.96936 11.655 2.9052 12.0575 3.19505C12.3265 3.38742 12.5319 3.68864 12.8392 4.2133C13.4697 5.28811 14.1364 7.48423 14.3207 8.52441C14.4439 9.22518 14.5256 9.68788 14.4025 10.1493C14.2578 10.6893 13.8745 11.033 13.4244 11.3941C13.34 11.462 13.2571 11.5262 13.1767 11.5886C12.6914 11.964 12.5761 12.0792 12.5628 12.3365C12.5369 12.8538 12.9311 14.5199 13.8755 16.1515C14.8199 17.783 16.0369 18.8967 16.4999 19.133C16.7391 19.2552 16.9002 19.2104 17.4865 18.9692C17.5706 18.9346 17.6571 18.8986 17.7469 18.8636C18.3499 18.6243 18.8179 18.4661 19.3452 18.6074L19.348 18.6081C19.8069 18.7311 20.1465 19.0354 20.7094 19.5381C21.4436 20.1938 23.0728 21.8693 23.6933 22.9551C23.9952 23.4829 24.1545 23.8107 24.1873 24.1394C24.2366 24.6344 23.9823 24.9439 23.8149 25.1518C23.787 25.1862 23.7561 25.224 23.7231 25.2662C23.3985 25.6835 23.0362 26.07 22.6407 26.4209C21.9384 27.0365 21.2749 27.481 20.3211 27.6485C19.8305 27.7378 19.326 27.7144 18.8457 27.5802Z" fill="white"/>
</g>
<defs>
<clipPath id="clip0_53_32">
<rect width="25" height="25" fill="white" transform="translate(6.47046) rotate(15)"/>
</clipPath>
</defs>
</svg>
