<svg width="21" height="24" viewBox="0 0 21 24" fill="none" xmlns="http://www.w3.org/2000/svg">
<circle cx="10.5" cy="10.7129" r="10" stroke="#2954B1" stroke-opacity="0.6"/>
<path d="M12.25 8.41289C12.25 7.95289 12.075 7.56289 11.725 7.24289C11.385 6.92289 10.95 6.76289 10.42 6.76289C9.56 6.76289 8.86 7.13289 8.32 7.87289L7.6 7.07789C7.88 6.62789 8.275 6.26289 8.785 5.98289C9.305 5.70289 9.875 5.56289 10.495 5.56289C11.435 5.56289 12.175 5.81289 12.715 6.31289C13.265 6.81289 13.54 7.42789 13.54 8.15789C13.54 8.61789 13.46 9.03289 13.3 9.40289C13.14 9.77289 12.94 10.0629 12.7 10.2729C12.46 10.4829 12.205 10.6979 11.935 10.9179C11.675 11.1379 11.435 11.3379 11.215 11.5179C11.005 11.6979 10.84 11.9279 10.72 12.2079C10.61 12.4879 10.59 12.8079 10.66 13.1679L9.58 13.1829C9.48 12.6629 9.5 12.2179 9.64 11.8479C9.79 11.4779 10.005 11.1779 10.285 10.9479C10.565 10.7179 10.85 10.4979 11.14 10.2879C11.44 10.0779 11.7 9.81789 11.92 9.50789C12.14 9.18789 12.25 8.82289 12.25 8.41289ZM9.28 15.4029C9.28 15.1929 9.36 15.0079 9.52 14.8479C9.68 14.6879 9.89 14.6079 10.15 14.6079C10.37 14.6079 10.555 14.6929 10.705 14.8629C10.865 15.0229 10.945 15.2029 10.945 15.4029C10.945 15.6329 10.87 15.8329 10.72 16.0029C10.57 16.1729 10.38 16.2579 10.15 16.2579C9.89 16.2579 9.68 16.1729 9.52 16.0029C9.36 15.8329 9.28 15.6329 9.28 15.4029Z" fill="#2954B1" fill-opacity="0.6"/>
</svg>
